<svg xmlns="http://www.w3.org/2000/svg" xmlns:xlink="http://www.w3.org/1999/xlink" width="500" zoomAndPan="magnify" viewBox="0 0 375 374.999991" height="500" preserveAspectRatio="xMidYMid meet" version="1.0"><defs><g/><clipPath id="88f43f0511"><path d="M 99.78125 112.402344 L 275.28125 112.402344 L 275.28125 262.398438 L 99.78125 262.398438 Z M 99.78125 112.402344 " clip-rule="nonzero"/></clipPath><clipPath id="3470936dbf"><path d="M 128.277344 112.402344 L 246.710938 112.402344 C 262.449219 112.402344 275.210938 125.164062 275.210938 140.902344 L 275.210938 234.097656 C 275.210938 249.835938 262.449219 262.59375 246.710938 262.59375 L 128.277344 262.59375 C 112.539062 262.59375 99.78125 249.835938 99.78125 234.097656 L 99.78125 140.902344 C 99.78125 125.164062 112.539062 112.402344 128.277344 112.402344 Z M 128.277344 112.402344 " clip-rule="nonzero"/></clipPath><clipPath id="88278dfdf5"><path d="M 223.710938 129.550781 L 255.210938 129.550781 L 255.210938 161.050781 L 223.710938 161.050781 Z M 223.710938 129.550781 " clip-rule="nonzero"/></clipPath><clipPath id="f5eb1b8615"><path d="M 219 126 L 260 126 L 260 164 L 219 164 Z M 219 126 " clip-rule="nonzero"/></clipPath><clipPath id="fa35d33d89"><path d="M 221.035156 125.273438 L 259.25 126.847656 L 257.675781 165.066406 L 219.457031 163.488281 Z M 221.035156 125.273438 " clip-rule="nonzero"/></clipPath><clipPath id="6ebf402b0c"><path d="M 221.035156 125.273438 L 259.25 126.847656 L 257.675781 165.066406 L 219.457031 163.488281 Z M 221.035156 125.273438 " clip-rule="nonzero"/></clipPath></defs><g clip-path="url(#88f43f0511)"><g clip-path="url(#3470936dbf)"><path stroke-linecap="butt" transform="matrix(0.75, 0, 0, 0.75, 99.780012, 112.403717)" fill="none" stroke-linejoin="miter" d="M 37.996444 -0.00183049 L 195.907913 -0.00183049 C 216.892289 -0.00183049 233.907916 17.013796 233.907916 37.998172 L 233.907916 162.258597 C 233.907916 183.242973 216.892289 200.253391 195.907913 200.253391 L 37.996444 200.253391 C 17.012068 200.253391 0.0016502 183.242973 0.0016502 162.258597 L 0.0016502 37.998172 C 0.0016502 17.013796 17.012068 -0.00183049 37.996444 -0.00183049 Z M 37.996444 -0.00183049 " stroke="#5046e3" stroke-width="16" stroke-opacity="1" stroke-miterlimit="4"/></g></g><g clip-path="url(#88278dfdf5)"><path fill="#5046e3" d="M 255.222656 136.300781 C 255.222656 140.03125 252.1875 143.066406 248.457031 143.066406 L 243.664062 143.066406 L 243.664062 147.519531 L 248.457031 147.519531 C 252.1875 147.519531 255.222656 150.554688 255.222656 154.285156 C 255.222656 158.011719 252.1875 161.050781 248.457031 161.050781 C 244.730469 161.050781 241.695312 158.011719 241.695312 154.285156 L 241.695312 149.488281 L 237.242188 149.488281 L 237.242188 154.285156 C 237.242188 158.011719 234.207031 161.050781 230.476562 161.050781 C 226.746094 161.050781 223.710938 158.011719 223.710938 154.285156 C 223.710938 150.554688 226.746094 147.519531 230.476562 147.519531 L 235.269531 147.519531 L 235.269531 143.066406 L 230.476562 143.066406 C 226.746094 143.066406 223.710938 140.03125 223.710938 136.300781 C 223.710938 132.570312 226.746094 129.539062 230.476562 129.539062 C 234.207031 129.539062 237.242188 132.574219 237.242188 136.300781 L 237.242188 141.097656 L 241.695312 141.097656 L 241.695312 136.300781 C 241.695312 132.570312 244.730469 129.539062 248.457031 129.539062 C 252.1875 129.539062 255.222656 132.574219 255.222656 136.300781 Z M 243.664062 141.097656 L 248.457031 141.097656 C 251.101562 141.097656 253.253906 138.945312 253.253906 136.304688 C 253.253906 133.660156 251.101562 131.507812 248.457031 131.507812 C 245.816406 131.507812 243.664062 133.660156 243.664062 136.304688 Z M 243.664062 154.285156 C 243.664062 156.929688 245.816406 159.078125 248.457031 159.078125 C 251.101562 159.078125 253.253906 156.925781 253.253906 154.285156 C 253.253906 151.640625 251.101562 149.488281 248.457031 149.488281 L 243.664062 149.488281 Z M 241.695312 147.519531 L 241.695312 143.066406 L 237.242188 143.066406 L 237.242188 147.519531 Z M 235.269531 141.097656 L 235.269531 136.304688 C 235.269531 133.660156 233.121094 131.507812 230.476562 131.507812 C 227.832031 131.507812 225.679688 133.660156 225.679688 136.300781 C 225.679688 138.945312 227.832031 141.097656 230.476562 141.097656 Z M 225.679688 154.285156 C 225.679688 156.925781 227.832031 159.078125 230.476562 159.078125 C 233.121094 159.078125 235.269531 156.925781 235.269531 154.285156 L 235.269531 149.488281 L 230.476562 149.488281 C 227.832031 149.488281 225.679688 151.640625 225.679688 154.285156 Z M 225.679688 154.285156 " fill-opacity="1" fill-rule="nonzero"/></g><g clip-path="url(#f5eb1b8615)"><g clip-path="url(#fa35d33d89)"><g clip-path="url(#6ebf402b0c)"><path fill="#5046e3" d="M 258.34375 126.847656 L 259.535156 128.140625 L 220.710938 163.886719 L 219.519531 162.59375 Z M 258.34375 126.847656 " fill-opacity="1" fill-rule="nonzero"/></g></g></g><g fill="#5046e3" fill-opacity="1"><g transform="translate(125.335222, 245.061709)"><g><path d="M 10.109375 -7.234375 L 8.34375 -7.234375 C 8.257812 -7.628906 8.097656 -7.984375 7.859375 -8.296875 C 7.628906 -8.617188 7.328125 -8.875 6.953125 -9.0625 C 6.578125 -9.257812 6.125 -9.359375 5.59375 -9.359375 C 4.976562 -9.359375 4.4375 -9.195312 3.96875 -8.875 C 3.5 -8.550781 3.128906 -8.085938 2.859375 -7.484375 C 2.597656 -6.890625 2.46875 -6.1875 2.46875 -5.375 C 2.46875 -4.539062 2.597656 -3.828125 2.859375 -3.234375 C 3.128906 -2.640625 3.5 -2.179688 3.96875 -1.859375 C 4.445312 -1.546875 5 -1.390625 5.625 -1.390625 C 6.351562 -1.390625 6.953125 -1.570312 7.421875 -1.9375 C 7.890625 -2.3125 8.203125 -2.820312 8.359375 -3.46875 L 10.125 -3.46875 C 10.039062 -2.757812 9.789062 -2.128906 9.375 -1.578125 C 8.96875 -1.023438 8.441406 -0.59375 7.796875 -0.28125 C 7.148438 0.03125 6.421875 0.1875 5.609375 0.1875 C 4.617188 0.1875 3.75 -0.03125 3 -0.46875 C 2.257812 -0.914062 1.679688 -1.554688 1.265625 -2.390625 C 0.847656 -3.234375 0.640625 -4.226562 0.640625 -5.375 C 0.640625 -6.226562 0.753906 -6.992188 0.984375 -7.671875 C 1.222656 -8.359375 1.5625 -8.945312 2 -9.4375 C 2.4375 -9.925781 2.957031 -10.300781 3.5625 -10.5625 C 4.164062 -10.820312 4.84375 -10.953125 5.59375 -10.953125 C 6.257812 -10.953125 6.859375 -10.847656 7.390625 -10.640625 C 7.921875 -10.429688 8.378906 -10.15625 8.765625 -9.8125 C 9.148438 -9.46875 9.457031 -9.070312 9.6875 -8.625 C 9.914062 -8.175781 10.054688 -7.710938 10.109375 -7.234375 Z M 10.109375 -7.234375 "/></g></g></g><g fill="#5046e3" fill-opacity="1"><g transform="translate(135.949662, 245.061709)"><g><path d="M 5.625 0.1875 C 4.882812 0.1875 4.207031 0.0546875 3.59375 -0.203125 C 2.976562 -0.460938 2.453125 -0.832031 2.015625 -1.3125 C 1.578125 -1.789062 1.238281 -2.375 1 -3.0625 C 0.757812 -3.75 0.640625 -4.519531 0.640625 -5.375 C 0.640625 -6.238281 0.757812 -7.007812 1 -7.6875 C 1.238281 -8.375 1.578125 -8.960938 2.015625 -9.453125 C 2.453125 -9.941406 2.976562 -10.3125 3.59375 -10.5625 C 4.207031 -10.820312 4.882812 -10.953125 5.625 -10.953125 C 6.375 -10.953125 7.050781 -10.820312 7.65625 -10.5625 C 8.257812 -10.3125 8.78125 -9.941406 9.21875 -9.453125 C 9.664062 -8.960938 10.007812 -8.375 10.25 -7.6875 C 10.488281 -7.007812 10.609375 -6.238281 10.609375 -5.375 C 10.609375 -4.519531 10.488281 -3.75 10.25 -3.0625 C 10.007812 -2.375 9.664062 -1.789062 9.21875 -1.3125 C 8.78125 -0.832031 8.257812 -0.460938 7.65625 -0.203125 C 7.050781 0.0546875 6.375 0.1875 5.625 0.1875 Z M 5.625 -1.390625 C 6.257812 -1.390625 6.8125 -1.546875 7.28125 -1.859375 C 7.757812 -2.171875 8.125 -2.625 8.375 -3.21875 C 8.632812 -3.820312 8.765625 -4.539062 8.765625 -5.375 C 8.765625 -6.226562 8.632812 -6.953125 8.375 -7.546875 C 8.125 -8.140625 7.757812 -8.585938 7.28125 -8.890625 C 6.8125 -9.203125 6.257812 -9.359375 5.625 -9.359375 C 4.988281 -9.359375 4.4375 -9.203125 3.96875 -8.890625 C 3.5 -8.585938 3.128906 -8.140625 2.859375 -7.546875 C 2.597656 -6.953125 2.46875 -6.226562 2.46875 -5.375 C 2.46875 -4.539062 2.597656 -3.820312 2.859375 -3.21875 C 3.128906 -2.625 3.5 -2.171875 3.96875 -1.859375 C 4.4375 -1.546875 4.988281 -1.390625 5.625 -1.390625 Z M 5.625 -1.390625 "/></g></g></g><g fill="#5046e3" fill-opacity="1"><g transform="translate(147.195175, 245.061709)"><g><path d="M 1.171875 0 L 1.171875 -10.765625 L 2.859375 -10.765625 L 2.859375 -9.046875 L 2.90625 -9.046875 C 3.164062 -9.617188 3.554688 -10.078125 4.078125 -10.421875 C 4.609375 -10.773438 5.234375 -10.953125 5.953125 -10.953125 C 6.691406 -10.953125 7.320312 -10.769531 7.84375 -10.40625 C 8.363281 -10.050781 8.742188 -9.546875 8.984375 -8.890625 L 9.015625 -8.890625 C 9.316406 -9.535156 9.765625 -10.039062 10.359375 -10.40625 C 10.960938 -10.769531 11.640625 -10.953125 12.390625 -10.953125 C 13.097656 -10.953125 13.710938 -10.804688 14.234375 -10.515625 C 14.765625 -10.222656 15.175781 -9.8125 15.46875 -9.28125 C 15.757812 -8.757812 15.90625 -8.140625 15.90625 -7.421875 L 15.90625 0 L 14.09375 0 L 14.09375 -7.015625 C 14.09375 -7.753906 13.898438 -8.328125 13.515625 -8.734375 C 13.128906 -9.148438 12.578125 -9.359375 11.859375 -9.359375 C 11.390625 -9.359375 10.972656 -9.25 10.609375 -9.03125 C 10.242188 -8.8125 9.957031 -8.515625 9.75 -8.140625 C 9.539062 -7.765625 9.4375 -7.332031 9.4375 -6.84375 L 9.4375 0 L 7.640625 0 L 7.640625 -7.203125 C 7.640625 -7.640625 7.546875 -8.019531 7.359375 -8.34375 C 7.179688 -8.664062 6.925781 -8.914062 6.59375 -9.09375 C 6.269531 -9.269531 5.882812 -9.359375 5.4375 -9.359375 C 4.957031 -9.359375 4.53125 -9.242188 4.15625 -9.015625 C 3.789062 -8.785156 3.5 -8.472656 3.28125 -8.078125 C 3.070312 -7.679688 2.96875 -7.238281 2.96875 -6.75 L 2.96875 0 Z M 1.171875 0 "/></g></g></g><g fill="#5046e3" fill-opacity="1"><g transform="translate(164.213454, 245.061709)"><g><path d="M 1.171875 0 L 1.171875 -10.765625 L 2.859375 -10.765625 L 2.859375 -9.046875 L 2.90625 -9.046875 C 3.164062 -9.617188 3.554688 -10.078125 4.078125 -10.421875 C 4.609375 -10.773438 5.234375 -10.953125 5.953125 -10.953125 C 6.691406 -10.953125 7.320312 -10.769531 7.84375 -10.40625 C 8.363281 -10.050781 8.742188 -9.546875 8.984375 -8.890625 L 9.015625 -8.890625 C 9.316406 -9.535156 9.765625 -10.039062 10.359375 -10.40625 C 10.960938 -10.769531 11.640625 -10.953125 12.390625 -10.953125 C 13.097656 -10.953125 13.710938 -10.804688 14.234375 -10.515625 C 14.765625 -10.222656 15.175781 -9.8125 15.46875 -9.28125 C 15.757812 -8.757812 15.90625 -8.140625 15.90625 -7.421875 L 15.90625 0 L 14.09375 0 L 14.09375 -7.015625 C 14.09375 -7.753906 13.898438 -8.328125 13.515625 -8.734375 C 13.128906 -9.148438 12.578125 -9.359375 11.859375 -9.359375 C 11.390625 -9.359375 10.972656 -9.25 10.609375 -9.03125 C 10.242188 -8.8125 9.957031 -8.515625 9.75 -8.140625 C 9.539062 -7.765625 9.4375 -7.332031 9.4375 -6.84375 L 9.4375 0 L 7.640625 0 L 7.640625 -7.203125 C 7.640625 -7.640625 7.546875 -8.019531 7.359375 -8.34375 C 7.179688 -8.664062 6.925781 -8.914062 6.59375 -9.09375 C 6.269531 -9.269531 5.882812 -9.359375 5.4375 -9.359375 C 4.957031 -9.359375 4.53125 -9.242188 4.15625 -9.015625 C 3.789062 -8.785156 3.5 -8.472656 3.28125 -8.078125 C 3.070312 -7.679688 2.96875 -7.238281 2.96875 -6.75 L 2.96875 0 Z M 1.171875 0 "/></g></g></g><g fill="#5046e3" fill-opacity="1"><g transform="translate(181.231733, 245.061709)"><g><path d="M 4.71875 -1.34375 C 5.28125 -1.34375 5.785156 -1.460938 6.234375 -1.703125 C 6.691406 -1.941406 7.050781 -2.269531 7.3125 -2.6875 C 7.582031 -3.101562 7.71875 -3.570312 7.71875 -4.09375 L 7.71875 -4.96875 L 4.84375 -4.796875 C 4.113281 -4.742188 3.550781 -4.566406 3.15625 -4.265625 C 2.757812 -3.960938 2.5625 -3.554688 2.5625 -3.046875 C 2.5625 -2.535156 2.757812 -2.125 3.15625 -1.8125 C 3.550781 -1.5 4.070312 -1.34375 4.71875 -1.34375 Z M 4.3125 0.1875 C 3.601562 0.1875 2.976562 0.0507812 2.4375 -0.21875 C 1.90625 -0.488281 1.488281 -0.863281 1.1875 -1.34375 C 0.882812 -1.832031 0.734375 -2.398438 0.734375 -3.046875 C 0.734375 -3.960938 1.070312 -4.695312 1.75 -5.25 C 2.425781 -5.800781 3.390625 -6.113281 4.640625 -6.1875 L 7.71875 -6.359375 L 7.71875 -7.265625 C 7.71875 -7.921875 7.507812 -8.429688 7.09375 -8.796875 C 6.675781 -9.171875 6.097656 -9.359375 5.359375 -9.359375 C 4.671875 -9.359375 4.113281 -9.207031 3.6875 -8.90625 C 3.257812 -8.601562 2.988281 -8.1875 2.875 -7.65625 L 1.140625 -7.65625 C 1.179688 -8.28125 1.375 -8.835938 1.71875 -9.328125 C 2.070312 -9.828125 2.5625 -10.222656 3.1875 -10.515625 C 3.8125 -10.804688 4.550781 -10.953125 5.40625 -10.953125 C 6.238281 -10.953125 6.960938 -10.804688 7.578125 -10.515625 C 8.203125 -10.234375 8.679688 -9.828125 9.015625 -9.296875 C 9.347656 -8.773438 9.515625 -8.15625 9.515625 -7.4375 L 9.515625 0 L 7.8125 0 L 7.8125 -1.859375 L 7.765625 -1.859375 C 7.554688 -1.441406 7.269531 -1.082031 6.90625 -0.78125 C 6.550781 -0.476562 6.148438 -0.238281 5.703125 -0.0625 C 5.253906 0.101562 4.789062 0.1875 4.3125 0.1875 Z M 4.3125 0.1875 "/></g></g></g><g fill="#5046e3" fill-opacity="1"><g transform="translate(191.866864, 245.061709)"><g><path d="M 1.171875 0 L 1.171875 -10.765625 L 2.859375 -10.765625 L 2.859375 -9.046875 L 2.90625 -9.046875 C 3.207031 -9.617188 3.640625 -10.078125 4.203125 -10.421875 C 4.773438 -10.773438 5.484375 -10.953125 6.328125 -10.953125 C 7.109375 -10.953125 7.773438 -10.789062 8.328125 -10.46875 C 8.890625 -10.144531 9.316406 -9.6875 9.609375 -9.09375 C 9.898438 -8.5 10.046875 -7.796875 10.046875 -6.984375 L 10.046875 0 L 8.25 0 L 8.25 -6.65625 C 8.25 -7.53125 8.039062 -8.195312 7.625 -8.65625 C 7.21875 -9.125 6.597656 -9.359375 5.765625 -9.359375 C 5.203125 -9.359375 4.707031 -9.226562 4.28125 -8.96875 C 3.863281 -8.71875 3.539062 -8.363281 3.3125 -7.90625 C 3.082031 -7.457031 2.96875 -6.929688 2.96875 -6.328125 L 2.96875 0 Z M 1.171875 0 "/></g></g></g><g fill="#5046e3" fill-opacity="1"><g transform="translate(203.029613, 245.061709)"><g><path d="M 5.25 0.1875 C 4.5625 0.1875 3.9375 0.0546875 3.375 -0.203125 C 2.8125 -0.460938 2.320312 -0.835938 1.90625 -1.328125 C 1.5 -1.816406 1.1875 -2.40625 0.96875 -3.09375 C 0.75 -3.78125 0.640625 -4.539062 0.640625 -5.375 C 0.640625 -6.21875 0.75 -6.976562 0.96875 -7.65625 C 1.1875 -8.34375 1.5 -8.929688 1.90625 -9.421875 C 2.3125 -9.910156 2.789062 -10.285156 3.34375 -10.546875 C 3.90625 -10.816406 4.523438 -10.953125 5.203125 -10.953125 C 5.972656 -10.953125 6.65625 -10.773438 7.25 -10.421875 C 7.851562 -10.078125 8.3125 -9.609375 8.625 -9.015625 L 8.671875 -9.015625 L 8.671875 -14.921875 L 10.46875 -14.921875 L 10.46875 0 L 8.75 0 L 8.75 -1.828125 L 8.71875 -1.828125 C 8.375 -1.203125 7.90625 -0.707031 7.3125 -0.34375 C 6.71875 0.0078125 6.03125 0.1875 5.25 0.1875 Z M 5.59375 -9.359375 C 4.957031 -9.359375 4.40625 -9.191406 3.9375 -8.859375 C 3.46875 -8.535156 3.109375 -8.078125 2.859375 -7.484375 C 2.609375 -6.890625 2.484375 -6.1875 2.484375 -5.375 C 2.484375 -4.5625 2.609375 -3.859375 2.859375 -3.265625 C 3.109375 -2.671875 3.46875 -2.207031 3.9375 -1.875 C 4.40625 -1.550781 4.957031 -1.390625 5.59375 -1.390625 C 6.207031 -1.390625 6.742188 -1.550781 7.203125 -1.875 C 7.671875 -2.207031 8.035156 -2.671875 8.296875 -3.265625 C 8.554688 -3.867188 8.6875 -4.570312 8.6875 -5.375 C 8.6875 -6.175781 8.554688 -6.875 8.296875 -7.46875 C 8.035156 -8.070312 7.671875 -8.535156 7.203125 -8.859375 C 6.742188 -9.191406 6.207031 -9.359375 5.59375 -9.359375 Z M 5.59375 -9.359375 "/></g></g></g><g fill="#5046e3" fill-opacity="1"><g transform="translate(214.761363, 245.061709)"><g><path d="M 1.265625 0 L 1.265625 -14.921875 L 3.0625 -14.921875 L 3.0625 0 Z M 1.265625 0 "/></g></g></g><g fill="#5046e3" fill-opacity="1"><g transform="translate(219.085765, 245.061709)"><g><path d="M 5.484375 -9.390625 C 4.921875 -9.390625 4.421875 -9.253906 3.984375 -8.984375 C 3.554688 -8.722656 3.210938 -8.359375 2.953125 -7.890625 C 2.691406 -7.429688 2.539062 -6.898438 2.5 -6.296875 L 8.34375 -6.296875 C 8.332031 -6.898438 8.207031 -7.429688 7.96875 -7.890625 C 7.726562 -8.359375 7.394531 -8.722656 6.96875 -8.984375 C 6.539062 -9.253906 6.046875 -9.390625 5.484375 -9.390625 Z M 8.3125 -3.078125 L 10.078125 -3.078125 C 10.003906 -2.609375 9.835938 -2.171875 9.578125 -1.765625 C 9.328125 -1.367188 9 -1.023438 8.59375 -0.734375 C 8.195312 -0.441406 7.742188 -0.210938 7.234375 -0.046875 C 6.722656 0.109375 6.175781 0.1875 5.59375 0.1875 C 4.570312 0.1875 3.6875 -0.0351562 2.9375 -0.484375 C 2.195312 -0.941406 1.628906 -1.582031 1.234375 -2.40625 C 0.835938 -3.238281 0.640625 -4.21875 0.640625 -5.34375 C 0.640625 -6.175781 0.753906 -6.9375 0.984375 -7.625 C 1.210938 -8.3125 1.539062 -8.898438 1.96875 -9.390625 C 2.394531 -9.890625 2.90625 -10.273438 3.5 -10.546875 C 4.09375 -10.816406 4.765625 -10.953125 5.515625 -10.953125 C 6.484375 -10.953125 7.316406 -10.726562 8.015625 -10.28125 C 8.722656 -9.84375 9.265625 -9.21875 9.640625 -8.40625 C 10.023438 -7.601562 10.21875 -6.660156 10.21875 -5.578125 L 10.21875 -4.890625 L 2.5 -4.890625 L 2.5 -4.796875 C 2.5 -4.109375 2.625 -3.503906 2.875 -2.984375 C 3.132812 -2.472656 3.5 -2.078125 3.96875 -1.796875 C 4.4375 -1.515625 4.992188 -1.375 5.640625 -1.375 C 6.316406 -1.375 6.890625 -1.53125 7.359375 -1.84375 C 7.835938 -2.164062 8.15625 -2.578125 8.3125 -3.078125 Z M 8.3125 -3.078125 "/></g></g></g><g fill="#5046e3" fill-opacity="1"><g transform="translate(229.938151, 245.061709)"><g><path d="M 0.984375 -7.796875 C 0.984375 -8.398438 1.148438 -8.941406 1.484375 -9.421875 C 1.828125 -9.898438 2.300781 -10.273438 2.90625 -10.546875 C 3.507812 -10.816406 4.207031 -10.953125 5 -10.953125 C 5.738281 -10.953125 6.398438 -10.8125 6.984375 -10.53125 C 7.566406 -10.257812 8.03125 -9.882812 8.375 -9.40625 C 8.71875 -8.9375 8.90625 -8.398438 8.9375 -7.796875 L 7.21875 -7.796875 C 7.15625 -8.316406 6.921875 -8.722656 6.515625 -9.015625 C 6.117188 -9.316406 5.59375 -9.46875 4.9375 -9.46875 C 4.28125 -9.46875 3.75 -9.320312 3.34375 -9.03125 C 2.945312 -8.738281 2.75 -8.359375 2.75 -7.890625 C 2.75 -7.515625 2.894531 -7.195312 3.1875 -6.9375 C 3.476562 -6.6875 3.929688 -6.484375 4.546875 -6.328125 L 6.203125 -5.921875 C 6.929688 -5.742188 7.507812 -5.53125 7.9375 -5.28125 C 8.375 -5.03125 8.6875 -4.722656 8.875 -4.359375 C 9.070312 -3.992188 9.171875 -3.546875 9.171875 -3.015625 C 9.171875 -2.390625 8.984375 -1.832031 8.609375 -1.34375 C 8.242188 -0.863281 7.738281 -0.488281 7.09375 -0.21875 C 6.457031 0.0507812 5.722656 0.1875 4.890625 0.1875 C 4.097656 0.1875 3.398438 0.0546875 2.796875 -0.203125 C 2.191406 -0.472656 1.703125 -0.847656 1.328125 -1.328125 C 0.960938 -1.804688 0.75 -2.363281 0.6875 -3 L 2.5 -3 C 2.59375 -2.4375 2.847656 -2.007812 3.265625 -1.71875 C 3.691406 -1.425781 4.269531 -1.28125 5 -1.28125 C 5.726562 -1.28125 6.300781 -1.425781 6.71875 -1.71875 C 7.144531 -2.007812 7.359375 -2.394531 7.359375 -2.875 C 7.359375 -3.257812 7.234375 -3.566406 6.984375 -3.796875 C 6.734375 -4.023438 6.304688 -4.21875 5.703125 -4.375 L 3.8125 -4.859375 C 1.925781 -5.347656 0.984375 -6.328125 0.984375 -7.796875 Z M 0.984375 -7.796875 "/></g></g></g><g fill="#5046e3" fill-opacity="1"><g transform="translate(239.797372, 245.061709)"><g><path d="M 0.984375 -7.796875 C 0.984375 -8.398438 1.148438 -8.941406 1.484375 -9.421875 C 1.828125 -9.898438 2.300781 -10.273438 2.90625 -10.546875 C 3.507812 -10.816406 4.207031 -10.953125 5 -10.953125 C 5.738281 -10.953125 6.398438 -10.8125 6.984375 -10.53125 C 7.566406 -10.257812 8.03125 -9.882812 8.375 -9.40625 C 8.71875 -8.9375 8.90625 -8.398438 8.9375 -7.796875 L 7.21875 -7.796875 C 7.15625 -8.316406 6.921875 -8.722656 6.515625 -9.015625 C 6.117188 -9.316406 5.59375 -9.46875 4.9375 -9.46875 C 4.28125 -9.46875 3.75 -9.320312 3.34375 -9.03125 C 2.945312 -8.738281 2.75 -8.359375 2.75 -7.890625 C 2.75 -7.515625 2.894531 -7.195312 3.1875 -6.9375 C 3.476562 -6.6875 3.929688 -6.484375 4.546875 -6.328125 L 6.203125 -5.921875 C 6.929688 -5.742188 7.507812 -5.53125 7.9375 -5.28125 C 8.375 -5.03125 8.6875 -4.722656 8.875 -4.359375 C 9.070312 -3.992188 9.171875 -3.546875 9.171875 -3.015625 C 9.171875 -2.390625 8.984375 -1.832031 8.609375 -1.34375 C 8.242188 -0.863281 7.738281 -0.488281 7.09375 -0.21875 C 6.457031 0.0507812 5.722656 0.1875 4.890625 0.1875 C 4.097656 0.1875 3.398438 0.0546875 2.796875 -0.203125 C 2.191406 -0.472656 1.703125 -0.847656 1.328125 -1.328125 C 0.960938 -1.804688 0.75 -2.363281 0.6875 -3 L 2.5 -3 C 2.59375 -2.4375 2.847656 -2.007812 3.265625 -1.71875 C 3.691406 -1.425781 4.269531 -1.28125 5 -1.28125 C 5.726562 -1.28125 6.300781 -1.425781 6.71875 -1.71875 C 7.144531 -2.007812 7.359375 -2.394531 7.359375 -2.875 C 7.359375 -3.257812 7.234375 -3.566406 6.984375 -3.796875 C 6.734375 -4.023438 6.304688 -4.21875 5.703125 -4.375 L 3.8125 -4.859375 C 1.925781 -5.347656 0.984375 -6.328125 0.984375 -7.796875 Z M 0.984375 -7.796875 "/></g></g></g></svg>