<svg xmlns="http://www.w3.org/2000/svg" xmlns:xlink="http://www.w3.org/1999/xlink" zoomAndPan="magnify" preserveAspectRatio="xMidYMid meet" version="1.0" viewBox="122.83 122.86 129.77 129.77"><defs><clipPath id="15634a9466"><path d="M 134.472656 134.765625 L 240.222656 134.765625 L 240.222656 240.515625 L 134.472656 240.515625 Z M 134.472656 134.765625 " clip-rule="nonzero"/></clipPath><clipPath id="a0bbf32c24"><path d="M 122.738281 122.738281 L 252.488281 122.738281 L 252.488281 252.488281 L 122.738281 252.488281 Z M 122.738281 122.738281 " clip-rule="nonzero"/></clipPath></defs><g clip-path="url(#15634a9466)"><path fill="#5046e3" d="M 240.515625 157.238281 C 240.515625 169.789062 230.300781 180 217.753906 180 L 201.617188 180 L 201.617188 194.984375 L 217.753906 194.984375 C 230.304688 194.984375 240.515625 205.199219 240.515625 217.75 C 240.515625 230.296875 230.300781 240.515625 217.753906 240.515625 C 205.203125 240.515625 194.988281 230.300781 194.988281 217.753906 L 194.988281 201.617188 L 180 201.617188 L 180 217.753906 C 180 230.300781 169.789062 240.515625 157.238281 240.515625 C 144.683594 240.515625 134.472656 230.300781 134.472656 217.753906 C 134.472656 205.203125 144.691406 194.988281 157.238281 194.988281 L 173.375 194.988281 L 173.375 180.007812 L 157.238281 180.007812 C 144.691406 180.007812 134.472656 169.789062 134.472656 157.238281 C 134.472656 144.683594 144.691406 134.472656 157.238281 134.472656 C 169.785156 134.472656 180 144.691406 180 157.238281 L 180 173.375 L 194.988281 173.375 L 194.988281 157.238281 C 194.988281 144.683594 205.199219 134.472656 217.753906 134.472656 C 230.304688 134.472656 240.515625 144.691406 240.515625 157.238281 Z M 201.617188 173.378906 L 217.753906 173.378906 C 226.652344 173.378906 233.890625 166.136719 233.890625 157.242188 C 233.890625 148.347656 226.648438 141.105469 217.753906 141.105469 C 208.859375 141.105469 201.617188 148.347656 201.617188 157.242188 Z M 201.617188 217.753906 C 201.617188 226.652344 208.855469 233.890625 217.753906 233.890625 C 226.652344 233.890625 233.890625 226.648438 233.890625 217.753906 C 233.890625 208.859375 226.648438 201.617188 217.753906 201.617188 L 201.617188 201.617188 Z M 194.988281 194.984375 L 194.988281 180 L 180 180 L 180 194.984375 Z M 173.375 173.378906 L 173.375 157.242188 C 173.375 148.34375 166.136719 141.105469 157.238281 141.105469 C 148.339844 141.105469 141.101562 148.34375 141.101562 157.238281 C 141.101562 166.132812 148.34375 173.375 157.238281 173.375 L 173.375 173.375 Z M 141.101562 217.753906 C 141.101562 226.648438 148.34375 233.890625 157.238281 233.890625 C 166.132812 233.890625 173.375 226.648438 173.375 217.753906 L 173.375 201.617188 L 157.238281 201.617188 C 148.34375 201.613281 141.101562 208.855469 141.101562 217.753906 Z M 141.101562 217.753906 " fill-opacity="1" fill-rule="nonzero"/></g><g clip-path="url(#a0bbf32c24)"><path fill="#5046e3" d="M 248.421875 122.855469 L 252.601562 127.035156 L 127.011719 252.625 L 122.832031 248.441406 Z M 248.421875 122.855469 " fill-opacity="1" fill-rule="nonzero"/></g></svg>