<svg xmlns="http://www.w3.org/2000/svg" viewBox="122.83 122.86 129.77 129.77" width="32" height="32">
  <path fill="#5046e3" d="M240.52 157.24c0 12.55-10.21 22.76-22.76 22.76h-16.14v14.98h16.14c12.55 0 22.76 10.21 22.76 22.77 0 12.55-10.21 22.76-22.76 22.76-12.55 0-22.76-10.21-22.76-22.76v-16.14H180v16.14c0 12.55-10.21 22.76-22.76 22.76-12.55 0-22.76-10.21-22.76-22.76 0-12.55 10.22-22.77 22.76-22.77h16.14v-14.98h-16.14c-12.55 0-22.76-10.21-22.76-22.76 0-12.56 10.21-22.77 22.76-22.77 12.55 0 22.76 10.22 22.76 22.77v16.14h14.99v-16.14c0-12.55 10.21-22.77 22.76-22.77s22.76 10.22 22.76 22.77zm-38.9 16.14h16.14c8.9 0 16.14-7.24 16.14-16.14 0-8.89-7.24-16.14-16.14-16.14-8.89 0-16.14 7.25-16.14 16.14zm0 44.38c0 8.9 7.24 16.14 16.14 16.14 8.9 0 16.14-7.25 16.14-16.14 0-8.89-7.24-16.14-16.14-16.14h-16.14zm-29.62-29.4v-16.14c0-8.9-7.24-16.14-16.14-16.14-8.9 0-16.14 7.25-16.14 16.14 0 8.89 7.24 16.14 16.14 16.14zm-32.27 44.38c0 8.9 7.24 16.14 16.14 16.14 8.9 0 16.14-7.25 16.14-16.14v-16.14h-16.14c-8.9 0-16.14 7.24-16.14 16.14z"/>
  <path fill="#5046e3" d="M248.42 122.86l4.18 4.18-125.59 125.59-4.18-4.18z"/>
</svg>

